<svg width="280" height="48" viewBox="0 0 280 48" fill="none" xmlns="http://www.w3.org/2000/svg">
  <!-- Case Academy wordmark - Space Grotesk Bold approximated as paths -->
  <!-- C -->
  <path d="M17.5 10C10.5 10 5 16 5 24C5 32 10.5 38 17.5 38C21.5 38 25 36 27.5 33L24 29.5C22.3 31.5 20 33 17.5 33C13.5 33 10.5 29 10.5 24C10.5 19 13.5 15 17.5 15C20 15 22.3 16.5 24 18.5L27.5 15C25 12 21.5 10 17.5 10Z" fill="#1e3a5f"/>
  <!-- a -->
  <path d="M40 18C35.5 18 32 21.5 32 26.5V37H37V27C37 24 38.5 22 41 22C43 22 44.5 23.5 44.5 26V37H49.5V25.5C49.5 21 46 18 40 18ZM40.5 14C37 14 34 15.5 32 18V18.5H37V18C38 16.5 39.5 15.5 41.5 15.5C43.5 15.5 45 16.5 45 18.5C45 20 44 21 42 21.5L40 22C36 23 33.5 25 33.5 29C33.5 33 36 35 40 35C43 35 45.5 33.5 47 31V34.5H51.5V18.5C51.5 15.5 48 14 44 14C42.5 14 41.5 14 40.5 14Z" fill="#1e3a5f"/>
  <!-- s -->
  <path d="M62 18C57 18 53.5 20.5 53.5 24.5C53.5 28 56 30 60 31L63 31.5C65 32 66 32.5 66 34C66 35.5 64.5 36.5 62 36.5C59.5 36.5 57.5 35.5 56 33.5L53 36.5C55 39 58 40.5 62 40.5C68 40.5 71.5 37.5 71.5 33.5C71.5 30 69 28 65 27L62 26.5C60 26 59 25.5 59 24C59 22.5 60.5 21.5 63 21.5C65 21.5 67 22.5 68.5 24L71 21C69 19 66 18 62 18Z" fill="#1e3a5f"/>
  <!-- e -->
  <path d="M83 18C77.5 18 73.5 22.5 73.5 29C73.5 35.5 77.5 40 84 40C88 40 91 38 93 35L89.5 32.5C88.5 34 86.5 35.5 84 35.5C80.5 35.5 78.5 33 78.5 30H93.5V28.5C93.5 22 89.5 18 83 18ZM78.5 26C79 23 81 21.5 83.5 21.5C86 21.5 88 23 88.5 26H78.5Z" fill="#1e3a5f"/>
  
  <!-- Space -->
  
  <!-- A -->
  <path d="M118 37H123.5L112 10H106L94.5 37H100L102.5 31H115.5L118 37ZM104.5 26L109 15L113.5 26H104.5Z" fill="#1e3a5f"/>
  <!-- c -->
  <path d="M134 18C128.5 18 124 22.5 124 29C124 35.5 128.5 40 134 40C138 40 141 38 143 35L139.5 32C138 34 136 35.5 134 35.5C130.5 35.5 128.5 32.5 128.5 29C128.5 25.5 130.5 22.5 134 22.5C136 22.5 138 24 139.5 26L143 23C141 20 138 18 134 18Z" fill="#1e3a5f"/>
  <!-- a -->
  <path d="M155 18C150.5 18 147 21.5 147 26.5V37H152V27C152 24 153.5 22 156 22C158 22 159.5 23.5 159.5 26V37H164.5V25.5C164.5 21 161 18 155 18ZM155.5 14C152 14 149 15.5 147 18V18.5H152V18C153 16.5 154.5 15.5 156.5 15.5C158.5 15.5 160 16.5 160 18.5C160 20 159 21 157 21.5L155 22C151 23 148.5 25 148.5 29C148.5 33 151 35 155 35C158 35 160.5 33.5 162 31V34.5H166.5V18.5C166.5 15.5 163 14 159 14C157.5 14 156.5 14 155.5 14Z" fill="#1e3a5f"/>
  <!-- d -->
  <path d="M180 18C175 18 171 22.5 171 29C171 35.5 175 40 180 40C183 40 185.5 38.5 187 36V39.5H192V10H187V21.5C185.5 19.5 183 18 180 18ZM181 35.5C177.5 35.5 175.5 32.5 175.5 29C175.5 25.5 177.5 22.5 181 22.5C184 22.5 186.5 25 186.5 29C186.5 33 184 35.5 181 35.5Z" fill="#1e3a5f"/>
  <!-- e -->
  <path d="M205 18C199.5 18 195.5 22.5 195.5 29C195.5 35.5 199.5 40 206 40C210 40 213 38 215 35L211.5 32.5C210.5 34 208.5 35.5 206 35.5C202.5 35.5 200.5 33 200.5 30H215.5V28.5C215.5 22 211.5 18 205 18ZM200.5 26C201 23 203 21.5 205.5 21.5C208 21.5 210 23 210.5 26H200.5Z" fill="#1e3a5f"/>
  <!-- m -->
  <path d="M229 18C226 18 223.5 19.5 222 22C220.5 19.5 218.5 18 215.5 18C212 18 219 18.5 217 21V18.5H212V37H217V27C217 24 218.5 22 221 22C223 22 224 23.5 224 26V37H229V27C229 24 230.5 22 233 22C235 22 236 23.5 236 26V37H241V25C241 21 238 18 234 18C231 18 229 19.5 229 18Z" fill="#1e3a5f"/>
  <!-- y -->
  <path d="M254 18.5H249L244 31L239 18.5H234L242 37L238 47H243L254 18.5Z" fill="#1e3a5f"/>
  
  <!-- Northeast arrow -->
  <path d="M263 17L273 7M273 7H265M273 7V15" stroke="#f59e0b" stroke-width="2.5" stroke-linecap="round" stroke-linejoin="round"/>
</svg>
